HIERARCHY
ROOT Hips
{
  OFFSET 5.84602e-005 68.8428 3.50346
  CHANNELS 6 Xposition Yposition Zposition Zrotation Xrotation Yrotation
  JOINT Spine
  {
    OFFSET 0 8.597 -4.6522
    CHANNELS 3 Zrotation Xrotation Yrotation
    JOINT Spine1
    {
      OFFSET 0 7.8454 0.4098
      CHANNELS 3 Zrotation Xrotation Yrotation
      JOINT Spine2
      {
        OFFSET 0 9.7078 -2.1609
        CHANNELS 3 Zrotation Xrotation Yrotation
        JOINT Neck
        {
          OFFSET 0 21.8761 -0.4549
          CHANNELS 3 Zrotation Xrotation Yrotation
          JOINT Head
          {
            OFFSET 0 12.3537 3.3602
            CHANNELS 3 Zrotation Xrotation Yrotation
            End Site
            {
              OFFSET 0.0001 18.9506 0.5657
            }
          }
        }
        JOINT LeftShoulder
        {
          OFFSET 2.2086 21.1115 7.2329
          CHANNELS 3 Zrotation Xrotation Yrotation
          JOINT LeftArm
          {
            OFFSET 13.1193 3.0282 -4.8998
            CHANNELS 3 Zrotation Xrotation Yrotation
            JOINT LeftForeArm
            {
              OFFSET 27.4081 -0.0973053 -0.2375
              CHANNELS 3 Zrotation Xrotation Yrotation
              JOINT LeftHand
              {
                OFFSET 22.8641 0.0662994 -0.1369
                CHANNELS 3 Zrotation Xrotation Yrotation
                JOINT LeftHandIndex1
                {
                  OFFSET 8.8614 0.775009 2.4612
                  CHANNELS 3 Zrotation Xrotation Yrotation
                  JOINT LeftHandIndex2
                  {
                    OFFSET 3.3146 -0.808304 0.5841
                    CHANNELS 3 Zrotation Xrotation Yrotation
                    JOINT LeftHandIndex3
                    {
                      OFFSET 2.2628 -0.552002 0.3989
                      CHANNELS 3 Zrotation Xrotation Yrotation
                      End Site
                      {
                        OFFSET 1.6102 -0.4807 0.2612
                      }
                    }
                  }
                }
                JOINT LeftHandMiddle1
                {
                  OFFSET 8.9937 0.895004 0.2143
                  CHANNELS 3 Zrotation Xrotation Yrotation
                  JOINT LeftHandMiddle2
                  {
                    OFFSET 4.0984 0.0113983 -0.0242
                    CHANNELS 3 Zrotation Xrotation Yrotation
                    JOINT LeftHandMiddle3
                    {
                      OFFSET 2.2716 0.00689697 -0.0138001
                      CHANNELS 3 Zrotation Xrotation Yrotation
                      End Site
                      {
                        OFFSET 2.0404 -0.1441 0.0027
                      }
                    }
                  }
                }
                JOINT LeftHandRing1
                {
                  OFFSET 8.5234 0.597198 -2.0164
                  CHANNELS 3 Zrotation Xrotation Yrotation
                  JOINT LeftHandRing2
                  {
                    OFFSET 3.7188 -0.188293 -0.2328
                    CHANNELS 3 Zrotation Xrotation Yrotation
                    JOINT LeftHandRing3
                    {
                      OFFSET 2.1191 -0.106598 -0.1332
                      CHANNELS 3 Zrotation Xrotation Yrotation
                      End Site
                      {
                        OFFSET 1.8737 -0.2304 -0.0886
                      }
                    }
                  }
                }
                JOINT LeftHandPinky1
                {
                  OFFSET 7.9094 -0.601089 -3.4825
                  CHANNELS 3 Zrotation Xrotation Yrotation
                  JOINT LeftHandPinky2
                  {
                    OFFSET 2.2874 -0.477005 -0.6314
                    CHANNELS 3 Zrotation Xrotation Yrotation
                    JOINT LeftHandPinky3
                    {
                      OFFSET 1.6774 -0.349396 -0.4633
                      CHANNELS 3 Zrotation Xrotation Yrotation
                      End Site
                      {
                        OFFSET 1.4888 -0.4091 -0.3416
                      }
                    }
                  }
                }
                JOINT LeftHandThumb1
                {
                  OFFSET 1.833 -1.3875 1.3896
                  CHANNELS 3 Zrotation Xrotation Yrotation
                  JOINT LeftHandThumb2
                  {
                    OFFSET 3.4129 -1.121 2.5732
                    CHANNELS 3 Zrotation Xrotation Yrotation
                    JOINT LeftHandThumb3
                    {
                      OFFSET 2.2474 -0.804199 1.6192
                      CHANNELS 3 Zrotation Xrotation Yrotation
                      End Site
                      {
                        OFFSET 1.6527 -0.5689 1.1317
                      }
                    }
                  }
                }
              }
            }
          }
        }
        JOINT RightShoulder
        {
          OFFSET -2.2086 21.1115 7.2329
          CHANNELS 3 Zrotation Xrotation Yrotation
          JOINT RightArm
          {
            OFFSET -13.1216 3.0287 -4.9007
            CHANNELS 3 Zrotation Xrotation Yrotation
            JOINT RightForeArm
            {
              OFFSET -27.4081 -0.0973053 -0.2375
              CHANNELS 3 Zrotation Xrotation Yrotation
              JOINT RightHand
              {
                OFFSET -22.8641 0.0664063 -0.1369
                CHANNELS 3 Zrotation Xrotation Yrotation
                JOINT RightHandIndex1
                {
                  OFFSET -8.8614 0.774994 2.4612
                  CHANNELS 3 Zrotation Xrotation Yrotation
                  JOINT RightHandIndex2
                  {
                    OFFSET -3.3146 -0.808304 0.5841
                    CHANNELS 3 Zrotation Xrotation Yrotation
                    JOINT RightHandIndex3
                    {
                      OFFSET -2.2628 -0.552002 0.3989
                      CHANNELS 3 Zrotation Xrotation Yrotation
                      End Site
                      {
                        OFFSET -1.6102 -0.4807 0.2612
                      }
                    }
                  }
                }
                JOINT RightHandMiddle1
                {
                  OFFSET -8.9937 0.894989 0.2143
                  CHANNELS 3 Zrotation Xrotation Yrotation
                  JOINT RightHandMiddle2
                  {
                    OFFSET -4.0984 0.0113983 -0.0242
                    CHANNELS 3 Zrotation Xrotation Yrotation
                    JOINT RightHandMiddle3
                    {
                      OFFSET -2.2716 0.00691223 -0.0138001
                      CHANNELS 3 Zrotation Xrotation Yrotation
                      End Site
                      {
                        OFFSET -2.0404 -0.1441 0.0027
                      }
                    }
                  }
                }
                JOINT RightHandRing1
                {
                  OFFSET -8.5234 0.597198 -2.0164
                  CHANNELS 3 Zrotation Xrotation Yrotation
                  JOINT RightHandRing2
                  {
                    OFFSET -3.7188 -0.188309 -0.2328
                    CHANNELS 3 Zrotation Xrotation Yrotation
                    JOINT RightHandRing3
                    {
                      OFFSET -2.1191 -0.106598 -0.1332
                      CHANNELS 3 Zrotation Xrotation Yrotation
                      End Site
                      {
                        OFFSET -1.8737 -0.2304 -0.0886
                      }
                    }
                  }
                }
                JOINT RightHandPinky1
                {
                  OFFSET -7.9094 -0.601105 -3.4825
                  CHANNELS 3 Zrotation Xrotation Yrotation
                  JOINT RightHandPinky2
                  {
                    OFFSET -2.2874 -0.477005 -0.6314
                    CHANNELS 3 Zrotation Xrotation Yrotation
                    JOINT RightHandPinky3
                    {
                      OFFSET -1.6774 -0.349396 -0.4633
                      CHANNELS 3 Zrotation Xrotation Yrotation
                      End Site
                      {
                        OFFSET -1.4888 -0.4091 -0.3416
                      }
                    }
                  }
                }
                JOINT RightHandThumb1
                {
                  OFFSET -1.833 -1.38751 1.3896
                  CHANNELS 3 Zrotation Xrotation Yrotation
                  JOINT RightHandThumb2
                  {
                    OFFSET -3.41299 -1.12099 2.5732
                    CHANNELS 3 Zrotation Xrotation Yrotation
                    JOINT RightHandThumb3
                    {
                      OFFSET -2.24741 -0.804108 1.6192
                      CHANNELS 3 Zrotation Xrotation Yrotation
                      End Site
                      {
                        OFFSET -1.6527 -0.5689 1.1317
                      }
                    }
                  }
                }
              }
            }
          }
        }
      }
    }
  }
  JOINT RightUpLeg
  {
    OFFSET -9.1966 3.8861 -0.7581
    CHANNELS 3 Zrotation Xrotation Yrotation
    JOINT RightLeg
    {
      OFFSET -0.7359 -41.0265 0
      CHANNELS 3 Zrotation Xrotation Yrotation
      JOINT RightFoot
      {
        OFFSET 0 -40.2855 0
        CHANNELS 3 Zrotation Xrotation Yrotation
        JOINT RightToeBase
        {
          OFFSET 0 -5.6122 11.7359
          CHANNELS 3 Zrotation Xrotation Yrotation
          End Site
          {
            OFFSET 0 0 7.8731
          }
        }
      }
    }
  }
  JOINT LeftUpLeg
  {
    OFFSET 9.1965 3.8864 -0.7581
    CHANNELS 3 Zrotation Xrotation Yrotation
    JOINT LeftLeg
    {
      OFFSET 0.7359 -41.0268 0
      CHANNELS 3 Zrotation Xrotation Yrotation
      JOINT LeftFoot
      {
        OFFSET 0 -40.2855 0
        CHANNELS 3 Zrotation Xrotation Yrotation
        JOINT LeftToeBase
        {
          OFFSET 0 -5.6122 11.7359
          CHANNELS 3 Zrotation Xrotation Yrotation
          End Site
          {
            OFFSET 0 0 7.8731
          }
        }
      }
    }
  }
}
MOTION
Frames:	4
Frame Time:	0.0333333
5.84602e-005 68.8428 3.50346 0 0 -0 0 0 -0 0 0 -0 0 0 -0 0 0 -0 0 0 -0 0 0 -0 0 0 -0 0 0 -0 0 0 -0 0 0 -0 0 0 -0 0 0 -0 0 0 -0 -0.0146107 -8.87603e-005 -2.63497e-007 2.99804e-018 -2.42657e-020 -1.42182e-022 0 0 -0 -0.0187562 -0.001176 5.858e-005 5.06224e-018 3.88251e-019 1.21329e-020 0 0 -0 -0.012269 -0.00324817 0.000675346 -1.74678e-018 3.88251e-019 -0 0 0 -0 0 0 -0 0 0 -0 0 0 -0 0 0 -0 0 0 -0 0 0 -0 0 0 -0 0 0 -0 0 0 -0 0 0 -0 0.0149955 -9.10982e-005 2.64101e-007 -9.69331e-018 1.21329e-020 -4.7394e-023 0 0 -0 0.0189956 -0.00119102 -5.96516e-005 -5.41541e-019 0 2.42657e-020 0 0 -0 0.0122698 -0.00324857 -0.000673756 -2.00796e-019 0 -1.94126e-019 0 0 -0 0 0 -0 0 0 -0 3.39842 1.33031 -0.0637918 -5.65207e-008 0.834868 -0.000436188 -3.39935 -2.16518 -0.0642563 -8.89002e-024 -1.18485e-023 -1.48106e-024 -3.39844 1.35642 0.0640283 -3.18788e-007 0.782166 -0.000588827 3.39931 -2.13858 0.0634662 1.1399e-023 0 -0 
-1.84124 68.2513 -0.588543 12.2539 -6.84572 -113.93 0.0164913 5.90771 -0.119567 0.0457415 11.8154 -0.242556 0.0457581 11.8154 -0.242579 0.00212242 -0.00182395 0.00316774 0.00206502 -0.00645943 0.000119582 -35.5838 -28.8493 -13.0684 -11.4799 1.31946 3.91688 0.118495 -13.4417 -0.117169 -15.323 -7.45463 -19.8974 -8.82781e-032 -3.18055e-015 -1.59028e-015 -6.36111e-015 -1.59028e-015 -7.95139e-015 8.82781e-032 3.18055e-015 -1.59028e-015 -8.82781e-032 -3.18055e-015 -1.59028e-015 -0.0146518 -9.30205e-005 3.67542e-007 8.82781e-032 3.18055e-015 -1.59028e-015 -8.82781e-032 -3.18055e-015 -1.59028e-015 -0.018727 -0.00117134 5.90371e-005 -3.18055e-015 0 -1.59028e-015 -8.82781e-032 -3.18055e-015 -1.59028e-015 -0.0122152 -0.00323213 0.00066679 4.41391e-031 -3.18055e-015 7.95139e-015 -8.82781e-032 -3.18055e-015 -1.59028e-015 -6.36111e-015 -1.59028e-015 -7.95139e-015 8.82781e-032 3.18055e-015 -1.59028e-015 6.20889 -32.8736 5.42449 10.4377 -1.15598 -19.2875 51.3369 -4.40854 10.6566 6.69593 4.19967 25.9063 3.18055e-015 6.36111e-015 -1.59028e-015 0 0 -0 -3.18055e-015 -6.36111e-015 -0 3.18055e-015 6.36111e-015 -1.59028e-015 0.0149979 -9.24292e-005 8.84003e-007 -3.18055e-015 3.18055e-015 4.77083e-015 3.18055e-015 6.36111e-015 -1.59028e-015 0.0190197 -0.0011918 -5.94204e-005 -3.18055e-015 9.54166e-015 3.18055e-015 3.18055e-015 6.36111e-015 -1.59028e-015 0.0122252 -0.00323865 -0.000671094 -3.18055e-015 0 -0 3.18055e-015 6.36111e-015 -1.59028e-015 0 0 -0 -3.18055e-015 -6.36111e-015 -0 -83.5564 -69.7076 -103.141 -47.074 78.2732 50.1937 0.0979024 -17.9337 -0.538775 -1.26434e-006 -8.61811e-007 1.66535e-007 28.6626 26.9601 62.1912 32.3235 57.4419 -56.6261 8.88287 22.2768 16.3546 5.54892e-007 -1.20486e-006 -1.03398e-006 
-0.835046 67.8879 -0.53654 -5.18345 -25.6066 178.015 0.0503786 9.42013 -0.195643 0.13672 18.8401 -0.408284 0.13672 18.8401 -0.408283 -0.00406331 0.00421865 -0.00597383 -0.00391173 0.012203 -0.000224677 -63.9634 -43.8406 -25.5436 -18.4097 2.14894 6.59977 -0.511955 -21.2558 -0.23766 -26.3352 -10.5205 -31.9882 -5.1684e-015 0 -1.59028e-015 9.93923e-016 0 8.74653e-015 -1.03644e-006 1.53033e-006 -2.79427e-006 -5.1684e-015 0 -1.59028e-015 -0.0145825 -8.66749e-005 -3.04736e-006 -1.03653e-006 1.53068e-006 -2.79408e-006 -5.1684e-015 0 -1.59028e-015 -0.0187393 -0.00117193 5.41049e-005 -1.03658e-006 1.53078e-006 -2.79401e-006 -5.1684e-015 0 -1.59028e-015 -0.0122592 -0.00324699 0.000671806 -1.28044e-007 2.67696e-006 -2.10686e-006 -5.1684e-015 0 -1.59028e-015 9.93923e-016 0 8.74653e-015 -1.03644e-006 1.53033e-006 -2.79427e-006 14.2611 -51.7653 11.7206 16.1814 -1.67015 -30.5465 82.1352 -6.76446 16.9499 8.88291 5.3815 40.885 1.59028e-014 -1.27222e-014 -6.36111e-015 3.67585e-007 5.57942e-007 5.28695e-007 -3.53113e-031 6.36111e-015 3.18055e-015 1.59028e-014 -1.27222e-014 -6.36111e-015 0.0149777 -9.39499e-005 -7.52446e-008 9.54166e-015 -3.18055e-015 3.18055e-015 1.59028e-014 -1.27222e-014 -6.36111e-015 0.0190348 -0.00119109 -5.68162e-005 1.27222e-014 3.18055e-015 3.18055e-015 1.59028e-014 -1.27222e-014 -6.36111e-015 0.0122525 -0.00324328 -0.000674135 3.18055e-015 6.36111e-015 -3.18055e-015 1.59028e-014 -1.27222e-014 -6.36111e-015 3.67585e-007 5.57942e-007 5.28695e-007 -3.53113e-031 6.36111e-015 3.18055e-015 -134.539 -26.766 -146.083 -155.549 48.5807 154.495 0.605372 -26.0703 -3.63528 4.02287e-007 5.96581e-008 -2.28329e-006 34.5296 8.73943 88.5684 86.7226 43.734 -111.064 0.968737 34.4284 32.7884 -2.23778e-007 3.67434e-007 -7.3208e-007 
-0.897947 67.7611 -0.719975 -1.15228 -23.0382 -172.941 0.0444649 9.16935 -0.186701 0.122053 18.3385 -0.388334 0.122051 18.3385 -0.388332 -0.0236075 0.0218021 -0.0343742 -0.0225478 0.0703411 -0.00129423 -58.682 -42.3665 -23.8614 -17.9624 2.22853 7.3367 -2.24176 -20.2268 -0.339857 -24.2432 -9.72043 -30.8868 3.12395e-007 2.27793e-006 -1.04963e-006 2.99221e-006 2.75926e-006 -9.33328e-007 -8.3998e-007 5.0392e-006 -2.62837e-006 3.12395e-007 2.27793e-006 -1.04963e-006 -0.0146591 -8.94747e-005 -8.28846e-007 8.45521e-009 6.5589e-006 -2.29535e-006 3.12395e-007 2.27793e-006 -1.04963e-006 -0.0187778 -0.0011744 5.77164e-005 -8.40367e-007 5.03961e-006 -2.62753e-006 3.12395e-007 2.27793e-006 -1.04963e-006 -0.0122444 -0.00323605 0.000673578 8.14193e-009 6.55923e-006 -2.29557e-006 3.12395e-007 2.27793e-006 -1.04963e-006 2.99221e-006 2.75926e-006 -9.33328e-007 -8.3998e-007 5.0392e-006 -2.62837e-006 12.642 -49.7891 10.7684 15.49 -1.61697 -29.1674 78.6024 -6.3999 16.1882 8.3831 4.73537 38.3763 -1.21389e-007 -2.36988e-007 -2.22266e-007 -6.53633e-008 -1.27609e-007 -1.19682e-007 -1.12051e-007 -2.18758e-007 -2.05169e-007 -1.21389e-007 -2.36988e-007 -2.22266e-007 0.0150475 -9.64567e-005 3.67424e-007 -1.12051e-007 -2.18785e-007 -2.0514e-007 -1.21389e-007 -2.36988e-007 -2.22266e-007 0.0189753 -0.00118837 -6.19308e-005 -4.03879e-007 -1.76349e-008 -2.64198e-007 -1.21389e-007 -2.36988e-007 -2.22266e-007 0.0123001 -0.0032552 -0.000677408 -4.03288e-007 -1.7437e-008 -2.64136e-007 -1.21389e-007 -2.36988e-007 -2.22266e-007 -6.53633e-008 -1.27609e-007 -1.19682e-007 -1.12051e-007 -2.18758e-007 -2.05169e-007 -130.707 -32.5533 -144.095 -153.089 53.8116 153.128 0.206199 -25.0061 -2.87342 -4.05984e-007 -1.28486e-007 2.57645e-008 33.65 13.1083 86.0186 82.6278 46.9698 -107.419 2.3827 32.9432 30.2838 -2.25041e-007 3.49539e-006 4.74619e-007 
